<svg xmlns="http://www.w3.org/2000/svg" xmlns:xlink="http://www.w3.org/1999/xlink" viewBox="0 0 700 346.4" width="700" height="346.4"><path d="M 110.400,240.800 C 116.193,237.900 115.600,237.200 120.800,233.600" stroke-width="4.932" stroke="black" fill="none" stroke-linecap="round"></path><path d="M 120.800,233.600 C 133.092,219.874 134.193,221.100 146.400,207.200" stroke-width="2.200" stroke="black" fill="none" stroke-linecap="round"></path><path d="M 146.400,207.200 C 167.194,188.393 166.692,187.874 188.000,169.600" stroke-width="1.490" stroke="black" fill="none" stroke-linecap="round"></path><path d="M 188.000,169.600 C 204.019,154.355 204.394,154.793 220.800,140.000" stroke-width="1.540" stroke="black" fill="none" stroke-linecap="round"></path><path d="M 220.800,140.000 C 237.390,126.125 237.219,125.955 254.400,112.800" stroke-width="1.526" stroke="black" fill="none" stroke-linecap="round"></path><path d="M 254.400,112.800 C 261.258,106.979 261.390,107.325 268.800,102.400" stroke-width="2.217" stroke="black" fill="none" stroke-linecap="round"></path><path d="M 268.800,102.400 C 276.800,97.894 272.458,100.179 276.800,99.200" stroke-width="3.060" stroke="black" fill="none" stroke-linecap="round"></path><path d="M 276.800,99.200 C 273.148,104.324 276.800,101.094 268.800,108.800" stroke-width="4.149" stroke="black" fill="none" stroke-linecap="round"></path><path d="M 268.800,108.800 C 258.802,117.607 259.548,118.324 249.600,127.200" stroke-width="2.478" stroke="black" fill="none" stroke-linecap="round"></path><path d="M 249.600,127.200 C 220.686,156.401 221.202,156.807 193.600,187.200" stroke-width="1.182" stroke="black" fill="none" stroke-linecap="round"></path><path d="M 193.600,187.200 C 172.000,213.600 171.086,212.801 150.400,240.000" stroke-width="1.139" stroke="black" fill="none" stroke-linecap="round"></path><path d="M 150.400,240.000 C 135.984,257.587 136.000,257.600 121.600,275.200" stroke-width="1.388" stroke="black" fill="none" stroke-linecap="round"></path><path d="M 121.600,275.200 C 115.942,281.305 116.384,281.587 111.200,288.000" stroke-width="2.133" stroke="black" fill="none" stroke-linecap="round"></path><path d="M 111.200,288.000 C 106.386,295.853 109.142,290.905 108.000,294.400" stroke-width="3.150" stroke="black" fill="none" stroke-linecap="round"></path><path d="M 108.000,294.400 C 117.440,283.849 114.386,288.653 127.200,273.600" stroke-width="3.063" stroke="black" fill="none" stroke-linecap="round"></path><path d="M 127.200,273.600 C 149.605,250.405 149.440,250.249 172.000,227.200" stroke-width="1.381" stroke="black" fill="none" stroke-linecap="round"></path><path d="M 172.000,227.200 C 182.601,215.800 182.805,216.005 193.600,204.800" stroke-width="1.756" stroke="black" fill="none" stroke-linecap="round"></path><path d="M 193.600,204.800 C 202.056,196.001 202.201,196.200 211.200,188.000" stroke-width="2.064" stroke="black" fill="none" stroke-linecap="round"></path><path d="M 211.200,188.000 C 221.541,177.054 218.056,182.001 225.600,176.800" stroke-width="2.526" stroke="black" fill="none" stroke-linecap="round"></path><path d="M 225.600,176.800 C 225.550,182.291 227.941,176.654 224.000,187.200" stroke-width="3.801" stroke="black" fill="none" stroke-linecap="round"></path><path d="M 224.000,187.200 C 219.820,190.529 223.150,189.891 220.800,192.000" stroke-width="4.072" stroke="black" fill="none" stroke-linecap="round"></path><path d="M 220.800,192.000 C 225.195,195.752 222.220,194.129 228.800,194.400" stroke-width="4.593" stroke="black" fill="none" stroke-linecap="round"></path><path d="M 228.800,194.400 C 238.068,188.965 237.995,190.952 246.400,182.400" stroke-width="3.037" stroke="black" fill="none" stroke-linecap="round"></path><path d="M 246.400,182.400 C 250.800,178.000 251.268,178.565 255.200,173.600" stroke-width="3.406" stroke="black" fill="none" stroke-linecap="round"></path><path d="M 255.200,173.600 C 258.575,168.663 257.200,171.600 259.200,169.600" stroke-width="4.113" stroke="black" fill="none" stroke-linecap="round"></path><path d="M 259.200,169.600 C 256.549,176.755 260.175,171.063 258.400,178.400" stroke-width="4.672" stroke="black" fill="none" stroke-linecap="round"></path><path d="M 258.400,178.400 C 262.712,177.844 260.149,179.955 266.400,176.000" stroke-width="4.003" stroke="black" fill="none" stroke-linecap="round"></path><path d="M 266.400,176.000 C 270.551,173.393 270.712,173.844 274.400,170.400" stroke-width="3.632" stroke="black" fill="none" stroke-linecap="round"></path><path d="M 274.400,170.400 C 280.800,163.082 277.751,167.793 280.800,164.800" stroke-width="3.713" stroke="black" fill="none" stroke-linecap="round"></path><path d="M 280.800,164.800 C 277.600,172.800 280.800,168.282 274.400,180.800" stroke-width="4.207" stroke="black" fill="none" stroke-linecap="round"></path><path d="M 274.400,180.800 C 273.207,185.037 272.800,184.800 271.200,188.800" stroke-width="3.863" stroke="black" fill="none" stroke-linecap="round"></path><path d="M 271.200,188.800 C 267.030,192.800 270.007,191.037 268.000,192.800" stroke-width="4.516" stroke="black" fill="none" stroke-linecap="round"></path><path d="M 268.000,192.800 C 273.116,191.834 269.830,192.800 276.800,188.800" stroke-width="3.822" stroke="black" fill="none" stroke-linecap="round"></path><path d="M 276.800,188.800 C 286.456,179.990 286.716,180.634 295.200,170.400" stroke-width="2.542" stroke="black" fill="none" stroke-linecap="round"></path><path d="M 295.200,170.400 C 298.127,162.526 298.856,166.390 301.600,161.600" stroke-width="3.104" stroke="black" fill="none" stroke-linecap="round"></path><path d="M 301.600,161.600 C 303.543,165.981 304.127,160.926 307.200,167.200" stroke-width="4.330" stroke="black" fill="none" stroke-linecap="round"></path><path d="M 307.200,167.200 C 322.592,169.848 321.543,171.981 337.600,173.600" stroke-width="3.689" stroke="black" fill="none" stroke-linecap="round"></path><path d="M 337.600,173.600 C 340.367,174.337 340.192,174.248 342.400,176.000" stroke-width="4.558" stroke="black" fill="none" stroke-linecap="round"></path><path d="M 148.000,158.400 C 159.152,156.399 159.200,156.800 170.400,155.200" stroke-width="2.536" stroke="black" fill="none" stroke-linecap="round"></path><path d="M 170.400,155.200 C 207.911,150.042 207.952,151.199 245.600,148.000" stroke-width="1.257" stroke="black" fill="none" stroke-linecap="round"></path><path d="M 245.600,148.000 C 289.201,146.685 289.111,145.642 332.800,146.400" stroke-width="1.125" stroke="black" fill="none" stroke-linecap="round"></path><path d="M 332.800,146.400 C 350.421,146.413 350.401,146.285 368.000,147.200" stroke-width="1.440" stroke="black" fill="none" stroke-linecap="round"></path><path d="M 368.000,147.200 C 381.588,147.296 377.221,147.613 386.400,148.800" stroke-width="2.137" stroke="black" fill="none" stroke-linecap="round"></path><path d="M 386.400,148.800 C 383.718,150.575 387.988,149.296 380.800,151.200" stroke-width="3.650" stroke="black" fill="none" stroke-linecap="round"></path><path d="M 276.000,192.800 C 304.012,191.387 304.000,191.200 332.000,189.600" stroke-width="1.317" stroke="black" fill="none" stroke-linecap="round"></path><path d="M 332.000,189.600 C 360.393,187.494 360.412,187.787 388.800,185.600" stroke-width="1.258" stroke="black" fill="none" stroke-linecap="round"></path><path d="M 388.800,185.600 C 396.397,185.082 396.393,185.094 404.000,184.800" stroke-width="2.136" stroke="black" fill="none" stroke-linecap="round"></path></svg>