<svg xmlns="http://www.w3.org/2000/svg" xmlns:xlink="http://www.w3.org/1999/xlink" viewBox="0 0 700 346.4" width="700" height="346.4"><path d="M 221.600,159.200 C 214.257,170.781 215.200,171.200 208.800,183.200" stroke-width="5.098" stroke="black" fill="none" stroke-linecap="round"></path><path d="M 208.800,183.200 C 202.564,197.315 202.657,197.181 198.400,212.000" stroke-width="2.454" stroke="black" fill="none" stroke-linecap="round"></path><path d="M 198.400,212.000 C 194.470,224.272 194.964,224.115 193.600,236.800" stroke-width="2.257" stroke="black" fill="none" stroke-linecap="round"></path><path d="M 193.600,236.800 C 192.486,253.465 192.470,253.072 194.400,269.600" stroke-width="2.010" stroke="black" fill="none" stroke-linecap="round"></path><path d="M 194.400,269.600 C 196.726,276.826 195.286,277.065 199.200,284.000" stroke-width="2.599" stroke="black" fill="none" stroke-linecap="round"></path><path d="M 199.200,284.000 C 200.620,288.477 200.726,288.426 202.400,292.800" stroke-width="3.198" stroke="black" fill="none" stroke-linecap="round"></path><path d="M 202.400,292.800 C 202.847,297.600 203.420,295.277 204.800,297.600" stroke-width="3.883" stroke="black" fill="none" stroke-linecap="round"></path><path d="M 204.800,297.600 C 210.630,296.469 208.447,297.600 213.600,292.800" stroke-width="4.533" stroke="black" fill="none" stroke-linecap="round"></path><path d="M 213.600,292.800 C 216.167,286.862 217.430,288.069 218.400,280.800" stroke-width="3.506" stroke="black" fill="none" stroke-linecap="round"></path><path d="M 218.400,280.800 C 221.806,271.668 221.767,271.662 224.800,262.400" stroke-width="2.766" stroke="black" fill="none" stroke-linecap="round"></path><path d="M 224.800,262.400 C 231.159,245.863 230.206,245.668 235.200,228.800" stroke-width="2.101" stroke="black" fill="none" stroke-linecap="round"></path><path d="M 235.200,228.800 C 237.286,215.212 238.359,215.463 239.200,201.600" stroke-width="2.079" stroke="black" fill="none" stroke-linecap="round"></path><path d="M 239.200,201.600 C 241.817,189.652 240.886,189.612 242.400,177.600" stroke-width="2.242" stroke="black" fill="none" stroke-linecap="round"></path><path d="M 242.400,177.600 C 242.209,164.786 243.017,164.852 241.600,152.000" stroke-width="2.186" stroke="black" fill="none" stroke-linecap="round"></path><path d="M 241.600,152.000 C 240.800,144.000 241.409,147.986 240.800,144.000" stroke-width="3.435" stroke="black" fill="none" stroke-linecap="round"></path><path d="M 240.800,144.000 C 240.594,148.144 240.800,144.000 241.600,152.000" stroke-width="4.603" stroke="black" fill="none" stroke-linecap="round"></path><path d="M 241.600,152.000 C 243.479,157.249 242.994,157.344 245.600,162.400" stroke-width="3.688" stroke="black" fill="none" stroke-linecap="round"></path><path d="M 245.600,162.400 C 249.489,170.686 249.079,170.849 252.800,179.200" stroke-width="2.874" stroke="black" fill="none" stroke-linecap="round"></path><path d="M 252.800,179.200 C 257.676,192.373 257.889,192.286 262.400,205.600" stroke-width="2.236" stroke="black" fill="none" stroke-linecap="round"></path><path d="M 262.400,205.600 C 265.292,214.920 265.676,214.773 268.800,224.000" stroke-width="2.492" stroke="black" fill="none" stroke-linecap="round"></path><path d="M 268.800,224.000 C 271.331,233.018 272.092,232.520 276.000,240.800" stroke-width="2.641" stroke="black" fill="none" stroke-linecap="round"></path><path d="M 276.000,240.800 C 282.509,251.057 282.131,251.018 290.400,260.000" stroke-width="2.355" stroke="black" fill="none" stroke-linecap="round"></path><path d="M 290.400,260.000 C 295.221,263.975 294.509,264.657 300.000,268.000" stroke-width="2.956" stroke="black" fill="none" stroke-linecap="round"></path><path d="M 300.000,268.000 C 302.533,272.143 302.821,270.375 305.600,272.800" stroke-width="3.530" stroke="black" fill="none" stroke-linecap="round"></path><path d="M 305.600,272.800 C 309.741,272.669 308.133,273.343 311.200,270.400" stroke-width="4.470" stroke="black" fill="none" stroke-linecap="round"></path><path d="M 311.200,270.400 C 312.414,266.037 313.341,267.069 312.800,261.600" stroke-width="4.089" stroke="black" fill="none" stroke-linecap="round"></path><path d="M 312.800,261.600 C 313.130,256.781 313.214,256.837 312.800,252.000" stroke-width="3.670" stroke="black" fill="none" stroke-linecap="round"></path><path d="M 312.800,252.000 C 313.054,244.951 312.330,245.181 311.200,238.400" stroke-width="3.608" stroke="black" fill="none" stroke-linecap="round"></path><path d="M 311.200,238.400 C 306.928,223.571 307.054,223.751 300.800,209.600" stroke-width="2.316" stroke="black" fill="none" stroke-linecap="round"></path><path d="M 300.800,209.600 C 295.862,201.276 296.928,200.771 291.200,192.800" stroke-width="2.528" stroke="black" fill="none" stroke-linecap="round"></path><path d="M 291.200,192.800 C 287.566,184.968 287.062,185.276 283.200,177.600" stroke-width="2.812" stroke="black" fill="none" stroke-linecap="round"></path><path d="M 283.200,177.600 C 280.977,174.246 281.166,174.168 278.400,171.200" stroke-width="3.409" stroke="black" fill="none" stroke-linecap="round"></path><path d="M 278.400,171.200 C 276.658,168.842 276.577,169.046 274.400,167.200" stroke-width="3.939" stroke="black" fill="none" stroke-linecap="round"></path><path d="M 274.400,167.200 C 268.209,164.192 272.258,165.642 269.600,164.800" stroke-width="4.811" stroke="black" fill="none" stroke-linecap="round"></path><path d="M 269.600,164.800 C 278.245,169.180 274.609,166.992 287.200,172.800" stroke-width="5.149" stroke="black" fill="none" stroke-linecap="round"></path><path d="M 287.200,172.800 C 297.056,176.847 297.045,176.780 307.200,180.000" stroke-width="2.956" stroke="black" fill="none" stroke-linecap="round"></path><path d="M 307.200,180.000 C 326.598,186.485 326.656,186.047 346.400,191.200" stroke-width="1.842" stroke="black" fill="none" stroke-linecap="round"></path><path d="M 346.400,191.200 C 360.327,194.164 360.198,194.485 374.400,196.000" stroke-width="2.019" stroke="black" fill="none" stroke-linecap="round"></path><path d="M 374.400,196.000 C 387.976,197.741 387.927,197.764 401.600,198.400" stroke-width="2.115" stroke="black" fill="none" stroke-linecap="round"></path><path d="M 401.600,198.400 C 413.034,200.114 412.776,198.941 424.000,198.400" stroke-width="2.270" stroke="black" fill="none" stroke-linecap="round"></path><path d="M 424.000,198.400 C 438.829,195.480 438.634,196.114 452.800,190.400" stroke-width="2.103" stroke="black" fill="none" stroke-linecap="round"></path><path d="M 452.800,190.400 C 460.734,186.910 460.829,187.480 468.000,182.400" stroke-width="2.546" stroke="black" fill="none" stroke-linecap="round"></path><path d="M 468.000,182.400 C 472.838,179.952 472.334,179.710 476.000,176.000" stroke-width="3.106" stroke="black" fill="none" stroke-linecap="round"></path><path d="M 476.000,176.000 C 482.914,167.728 482.438,167.952 487.200,158.400" stroke-width="2.676" stroke="black" fill="none" stroke-linecap="round"></path><path d="M 487.200,158.400 C 488.273,152.371 489.714,152.928 489.600,146.400" stroke-width="3.014" stroke="black" fill="none" stroke-linecap="round"></path><path d="M 489.600,146.400 C 490.845,141.611 490.673,141.571 492.000,136.800" stroke-width="3.374" stroke="black" fill="none" stroke-linecap="round"></path><path d="M 492.000,136.800 C 493.447,131.642 493.245,131.611 494.400,126.400" stroke-width="3.431" stroke="black" fill="none" stroke-linecap="round"></path><path d="M 494.400,126.400 C 495.723,122.690 495.047,122.842 495.200,119.200" stroke-width="4.194" stroke="black" fill="none" stroke-linecap="round"></path><path d="M 495.200,119.200 C 494.491,114.232 494.523,114.690 492.000,110.400" stroke-width="4.324" stroke="black" fill="none" stroke-linecap="round"></path><path d="M 492.000,110.400 C 489.013,105.808 489.291,106.232 484.800,103.200" stroke-width="4.284" stroke="black" fill="none" stroke-linecap="round"></path><path d="M 484.800,103.200 C 480.111,101.068 480.613,100.608 475.200,100.000" stroke-width="4.319" stroke="black" fill="none" stroke-linecap="round"></path><path d="M 475.200,100.000 C 470.808,99.420 470.911,99.068 466.400,99.200" stroke-width="3.808" stroke="black" fill="none" stroke-linecap="round"></path><path d="M 466.400,99.200 C 462.800,99.200 462.808,99.020 459.200,99.200" stroke-width="3.952" stroke="black" fill="none" stroke-linecap="round"></path><path d="M 459.200,99.200 C 455.972,98.848 456.000,99.200 452.800,99.200" stroke-width="3.998" stroke="black" fill="none" stroke-linecap="round"></path><path d="M 452.800,99.200 C 445.139,100.092 445.172,100.048 437.600,101.600" stroke-width="3.204" stroke="black" fill="none" stroke-linecap="round"></path><path d="M 437.600,101.600 C 429.098,103.229 429.139,103.292 420.800,105.600" stroke-width="2.903" stroke="black" fill="none" stroke-linecap="round"></path><path d="M 420.800,105.600 C 406.917,110.402 406.698,109.629 392.800,114.400" stroke-width="2.259" stroke="black" fill="none" stroke-linecap="round"></path><path d="M 392.800,114.400 C 361.517,122.505 361.717,123.202 330.400,131.200" stroke-width="1.316" stroke="black" fill="none" stroke-linecap="round"></path><path d="M 330.400,131.200 C 307.052,137.531 307.117,137.706 284.000,144.800" stroke-width="1.373" stroke="black" fill="none" stroke-linecap="round"></path><path d="M 284.000,144.800 C 262.177,150.525 262.652,151.531 241.600,159.200" stroke-width="1.491" stroke="black" fill="none" stroke-linecap="round"></path><path d="M 241.600,159.200 C 221.790,168.812 221.377,167.725 202.400,179.200" stroke-width="1.544" stroke="black" fill="none" stroke-linecap="round"></path><path d="M 202.400,179.200 C 188.467,187.322 188.190,186.812 174.400,195.200" stroke-width="1.756" stroke="black" fill="none" stroke-linecap="round"></path><path d="M 174.400,195.200 C 168.423,198.445 168.467,198.522 162.400,201.600" stroke-width="2.532" stroke="black" fill="none" stroke-linecap="round"></path><path d="M 162.400,201.600 C 160.132,203.221 160.023,202.845 157.600,204.000" stroke-width="3.544" stroke="black" fill="none" stroke-linecap="round"></path><path d="M 449.600,139.200 C 454.311,144.991 454.000,145.200 458.400,151.200" stroke-width="5.080" stroke="black" fill="none" stroke-linecap="round"></path><path d="M 458.400,151.200 C 464.893,161.544 465.111,161.391 471.200,172.000" stroke-width="2.981" stroke="black" fill="none" stroke-linecap="round"></path><path d="M 471.200,172.000 C 480.230,186.671 480.093,186.744 488.800,201.600" stroke-width="2.096" stroke="black" fill="none" stroke-linecap="round"></path><path d="M 488.800,201.600 C 492.379,208.411 492.630,208.271 496.000,215.200" stroke-width="2.630" stroke="black" fill="none" stroke-linecap="round"></path><path d="M 496.000,215.200 C 499.047,220.282 498.779,220.411 501.600,225.600" stroke-width="3.027" stroke="black" fill="none" stroke-linecap="round"></path><path d="M 515.200,139.200 C 512.097,142.890 512.000,142.800 508.800,146.400" stroke-width="4.646" stroke="black" fill="none" stroke-linecap="round"></path><path d="M 508.800,146.400 C 498.912,155.427 499.697,156.090 490.400,165.600" stroke-width="2.753" stroke="black" fill="none" stroke-linecap="round"></path><path d="M 490.400,165.600 C 483.127,175.549 482.512,175.027 476.000,185.600" stroke-width="2.352" stroke="black" fill="none" stroke-linecap="round"></path><path d="M 476.000,185.600 C 467.380,197.454 467.527,197.549 459.200,209.600" stroke-width="2.144" stroke="black" fill="none" stroke-linecap="round"></path><path d="M 459.200,209.600 C 454.100,217.027 454.180,217.054 449.600,224.800" stroke-width="2.474" stroke="black" fill="none" stroke-linecap="round"></path><path d="M 449.600,224.800 C 446.069,232.687 445.300,232.227 441.600,240.000" stroke-width="2.692" stroke="black" fill="none" stroke-linecap="round"></path><path d="M 441.600,240.000 C 437.075,247.032 437.269,247.087 432.000,253.600" stroke-width="2.795" stroke="black" fill="none" stroke-linecap="round"></path></svg>