<svg xmlns="http://www.w3.org/2000/svg" xmlns:xlink="http://www.w3.org/1999/xlink" viewBox="0 0 700 346.4" width="700" height="346.4"><path d="M 113.600,244.800 C 120.784,222.904 122.800,224.000 132.000,203.200" stroke-width="4.143" stroke="black" fill="none" stroke-linecap="round"></path><path d="M 132.000,203.200 C 150.295,170.290 150.384,170.904 172.800,140.800" stroke-width="1.287" stroke="black" fill="none" stroke-linecap="round"></path><path d="M 172.800,140.800 C 186.302,125.324 185.095,124.690 201.600,112.000" stroke-width="1.525" stroke="black" fill="none" stroke-linecap="round"></path><path d="M 201.600,112.000 C 211.127,103.055 211.102,103.724 222.400,97.600" stroke-width="1.975" stroke="black" fill="none" stroke-linecap="round"></path><path d="M 222.400,97.600 C 236.540,91.199 235.927,91.055 251.200,88.000" stroke-width="2.006" stroke="black" fill="none" stroke-linecap="round"></path><path d="M 251.200,88.000 C 259.280,86.169 258.540,86.399 266.400,88.000" stroke-width="2.549" stroke="black" fill="none" stroke-linecap="round"></path><path d="M 266.400,88.000 C 274.390,90.172 273.280,89.769 279.200,95.200" stroke-width="2.860" stroke="black" fill="none" stroke-linecap="round"></path><path d="M 279.200,95.200 C 283.310,100.537 283.190,99.372 284.000,106.400" stroke-width="3.085" stroke="black" fill="none" stroke-linecap="round"></path><path d="M 284.000,106.400 C 285.145,114.987 284.910,114.137 282.400,122.400" stroke-width="2.947" stroke="black" fill="none" stroke-linecap="round"></path><path d="M 282.400,122.400 C 274.822,135.810 277.145,136.587 268.000,149.600" stroke-width="2.148" stroke="black" fill="none" stroke-linecap="round"></path><path d="M 268.000,149.600 C 257.365,174.526 256.022,173.810 244.800,198.400" stroke-width="1.516" stroke="black" fill="none" stroke-linecap="round"></path><path d="M 244.800,198.400 C 236.664,212.171 237.365,212.526 228.000,225.600" stroke-width="1.797" stroke="black" fill="none" stroke-linecap="round"></path><path d="M 228.000,225.600 C 221.295,237.507 220.664,236.971 212.800,248.000" stroke-width="2.090" stroke="black" fill="none" stroke-linecap="round"></path><path d="M 212.800,248.000 C 199.960,261.964 200.895,262.707 187.200,276.000" stroke-width="1.984" stroke="black" fill="none" stroke-linecap="round"></path><path d="M 187.200,276.000 C 181.045,285.254 179.960,283.964 172.800,292.000" stroke-width="2.582" stroke="black" fill="none" stroke-linecap="round"></path><path d="M 172.800,292.000 C 157.534,305.762 163.445,299.654 152.000,304.800" stroke-width="2.640" stroke="black" fill="none" stroke-linecap="round"></path><path d="M 152.000,304.800 C 150.724,295.783 148.334,304.162 154.400,288.800" stroke-width="3.343" stroke="black" fill="none" stroke-linecap="round"></path><path d="M 154.400,288.800 C 163.809,272.809 162.724,272.983 176.000,259.200" stroke-width="2.003" stroke="black" fill="none" stroke-linecap="round"></path><path d="M 176.000,259.200 C 197.202,232.377 198.209,234.409 223.200,212.000" stroke-width="1.311" stroke="black" fill="none" stroke-linecap="round"></path><path d="M 223.200,212.000 C 243.481,199.661 241.602,197.577 264.800,189.600" stroke-width="1.430" stroke="black" fill="none" stroke-linecap="round"></path><path d="M 264.800,189.600 C 279.273,182.874 279.081,182.861 294.400,178.400" stroke-width="1.767" stroke="black" fill="none" stroke-linecap="round"></path><path d="M 294.400,178.400 C 307.947,175.076 307.673,174.474 321.600,172.800" stroke-width="1.960" stroke="black" fill="none" stroke-linecap="round"></path><path d="M 321.600,172.800 C 328.623,171.305 324.747,172.276 328.000,172.800" stroke-width="3.083" stroke="black" fill="none" stroke-linecap="round"></path><path d="M 328.000,172.800 C 323.182,178.074 326.623,176.105 317.600,182.400" stroke-width="3.891" stroke="black" fill="none" stroke-linecap="round"></path><path d="M 317.600,182.400 C 306.953,190.228 307.182,190.474 296.000,197.600" stroke-width="2.532" stroke="black" fill="none" stroke-linecap="round"></path><path d="M 296.000,197.600 C 285.751,203.649 286.153,204.228 276.000,210.400" stroke-width="2.339" stroke="black" fill="none" stroke-linecap="round"></path><path d="M 276.000,210.400 C 264.588,217.929 270.151,214.449 264.800,219.200" stroke-width="2.801" stroke="black" fill="none" stroke-linecap="round"></path><path d="M 264.800,219.200 C 271.249,218.153 264.988,220.329 276.800,215.200" stroke-width="3.581" stroke="black" fill="none" stroke-linecap="round"></path><path d="M 276.800,215.200 C 289.163,206.420 290.049,208.153 302.400,199.200" stroke-width="2.330" stroke="black" fill="none" stroke-linecap="round"></path><path d="M 302.400,199.200 C 325.435,189.127 324.363,187.220 347.200,176.800" stroke-width="1.613" stroke="black" fill="none" stroke-linecap="round"></path><path d="M 347.200,176.800 C 370.050,162.478 370.635,163.527 392.800,148.000" stroke-width="1.418" stroke="black" fill="none" stroke-linecap="round"></path><path d="M 392.800,148.000 C 401.091,143.182 400.850,142.877 408.800,137.600" stroke-width="2.064" stroke="black" fill="none" stroke-linecap="round"></path><path d="M 408.800,137.600 C 413.480,134.980 412.691,134.782 416.000,131.200" stroke-width="2.901" stroke="black" fill="none" stroke-linecap="round"></path><path d="M 416.000,131.200 C 417.430,128.119 417.480,128.980 416.800,125.600" stroke-width="3.714" stroke="black" fill="none" stroke-linecap="round"></path><path d="M 416.800,125.600 C 415.785,122.620 416.230,123.319 413.600,121.600" stroke-width="4.120" stroke="black" fill="none" stroke-linecap="round"></path><path d="M 413.600,121.600 C 409.000,119.131 409.785,119.820 404.800,120.000" stroke-width="3.748" stroke="black" fill="none" stroke-linecap="round"></path><path d="M 404.800,120.000 C 397.346,122.723 397.400,121.531 390.400,126.400" stroke-width="3.126" stroke="black" fill="none" stroke-linecap="round"></path><path d="M 390.400,126.400 C 379.842,131.878 383.746,129.923 377.600,134.400" stroke-width="3.022" stroke="black" fill="none" stroke-linecap="round"></path><path d="M 377.600,134.400 C 380.967,134.655 376.642,135.478 384.000,133.600" stroke-width="4.065" stroke="black" fill="none" stroke-linecap="round"></path><path d="M 384.000,133.600 C 399.603,128.482 399.367,128.255 414.400,121.600" stroke-width="2.357" stroke="black" fill="none" stroke-linecap="round"></path><path d="M 414.400,121.600 C 433.186,110.672 434.003,112.482 452.800,101.600" stroke-width="1.699" stroke="black" fill="none" stroke-linecap="round"></path></svg>