<svg enable-background="new 0 0 24 24" height="512" viewBox="0 0 24 24" width="512" xmlns="http://www.w3.org/2000/svg"><path d="m9.99 13.53c-.63 1.19-.99 2.54-.99 3.97 0 .73.09 1.44.27 2.11l-9.27-5.02v-9.73l9.99 4.87z" fill="#ffcc80"/><path d="m20 4.86v4.51c-.79-.24-1.63-.37-2.5-.37-3.24 0-6.06 1.82-7.49 4.49v-3.76z" fill="#ffb74d"/><path d="m20 4.86-9.99 4.87-3.89-1.89-1.62-.79-4.5-2.19 9.99-4.86 4.26 2.07 1.7.82z" fill="#ffa726"/><path d="m15.731 2.796-9.882 4.924v4.974l-1.567-.798v-4.94l9.75-4.98z" fill="#795548"/><path d="m0 4.86v9.73l9.27 5.02c-.18-.67-.27-1.38-.27-2.11 0-1.43.36-2.78.99-3.97v-3.8l-4.132-2.014-.009.004v4.974l-1.566-.798v-4.94l.009-.004z" fill="#deb26f"/><path d="m10 5.652-4.138 2.062.258.126 3.88 1.885zm-.01-5.652-9.99 4.86 4.294 2.09 5.706-2.914v-4.031z" fill="#de9121"/><path d="m10 4.036-5.706 2.914-.003.002-.009.004v4.94l1.567.798v-4.974l.009-.004.004-.002 4.138-2.062z" fill="#694a3f"/><path d="m17.5 24c-3.584 0-6.5-2.916-6.5-6.5s2.916-6.5 6.5-6.5 6.5 2.916 6.5 6.5-2.916 6.5-6.5 6.5z" fill="#4caf50"/><path d="m17.5 20c-.181 0-.361-.065-.505-.195l-2.75-2.5c-.306-.279-.329-.753-.05-1.06.277-.307.752-.329 1.06-.051l2.245 2.042 2.245-2.042c.308-.278.781-.256 1.06.051.279.306.256.781-.05 1.06l-2.75 2.5c-.144.13-.324.195-.505.195z" fill="#fff"/><path d="m17.5 11c-3.584 0-6.5 2.916-6.5 6.5s2.916 6.5 6.5 6.5v-4c-.181 0-.361-.065-.505-.195l-2.75-2.5c-.306-.279-.329-.753-.05-1.06.148-.162.35-.245.554-.245.18 0 .361.064.506.195l2.245 2.042z" fill="#429846"/><path d="m14.749 16c-.204 0-.407.083-.554.246-.279.306-.256.781.05 1.06l2.75 2.5c.144.129.324.194.505.194v-1.764l-2.245-2.042c-.144-.13-.325-.194-.506-.194z" fill="#dedede"/></svg>