<?xml version="1.0" encoding="iso-8859-1"?>
<!-- Generator: Adobe Illustrator 19.0.0, SVG Export Plug-In . SVG Version: 6.00 Build 0)  -->
<svg version="1.1" id="Capa_1" xmlns="http://www.w3.org/2000/svg" xmlns:xlink="http://www.w3.org/1999/xlink" x="0px" y="0px"
	 viewBox="0 0 468.293 468.293" style="enable-background:new 0 0 468.293 468.293;" xml:space="preserve">
<path style="fill:#D15241;" d="M86.086,162.187l-23.352,7.18c-0.063-16.734-0.125-33.467-0.125-33.467
	C65.419,141.394,75.909,154.257,86.086,162.187z"/>
<path style="fill:#E56353;" d="M468.293,251.136v32.398c0,1.797-0.55,3.544-1.598,4.992c-1.248,1.747-3.095,2.995-5.192,3.394
	c-15.076,3.095-30.65,3.095-46.125,3.095H46.777l-10.783-2.895l-13.927-3.694C9.038,284.931,0.003,273.15,0.003,259.722v-56.259
	c79.072-61.001,193.086-76.126,285.536-38.388c19.169,7.837,37.439,17.721,56.409,26.157c26.008,11.581,53.264,17.522,81.118,20.367
	c16.074,1.647,30.7,10.034,40.035,23.162C466.495,239.555,468.293,245.295,468.293,251.136z"/>
<path style="fill:#D15241;" d="M38.89,211.799c0,0-21.415,5.891-38.887,18.021v-25.758C8.839,207.107,21.967,210.551,38.89,211.799z
	"/>
<g>
	<rect y="254.002" style="fill:#2F4859;" width="31.7" height="4.989"/>
	<path style="fill:#2F4859;" d="M152.704,225.773c-4.063,0-8.124-1.238-12.073-3.71c-1.753-1.102-2.281-3.412-1.182-5.163
		c1.097-1.755,3.408-2.272,5.16-1.185c5.518,3.461,10.669,3.461,16.202,0c1.745-1.087,4.058-0.561,5.16,1.185
		c1.097,1.755,0.565,4.066-1.187,5.163C160.833,224.54,156.767,225.773,152.704,225.773z"/>
	<path style="fill:#2F4859;" d="M230.119,225.793c-3.893,0-7.878-0.858-11.929-2.564c-1.906-0.804-2.798-3.003-1.994-4.909
		c0.802-1.901,3-2.793,4.904-1.994c6.196,2.618,11.865,2.642,17.335,0.063c1.87-0.887,4.102-0.078,4.982,1.794
		c0.88,1.872,0.076,4.1-1.794,4.982C237.902,224.915,234.058,225.793,230.119,225.793z"/>
</g>
<path style="fill:#E1E6E9;" d="M468.093,247.592h-43.779c-12.929,0-23.412-10.483-23.412-23.412h52.365
	c3.894,3.245,7.388,6.988,10.283,11.232C466.046,239.055,467.643,243.249,468.093,247.592z"/>
<path style="fill:#64798A;" d="M415.428,292.519c0,0.849,0,1.697-0.05,2.496H315.74c-0.05-0.799-0.05-1.647-0.05-2.496
	c0-27.505,22.364-49.919,49.869-49.919S415.428,265.013,415.428,292.519z"/>
<path style="fill:#2F4859;" d="M325.662,292.496c0,22.048,17.849,39.897,39.901,39.897c22.044,0,39.892-17.849,39.892-39.897
	c0-22.048-17.849-39.895-39.892-39.895C343.511,252.602,325.662,270.448,325.662,292.496z"/>
<path style="fill:#64798A;" d="M340.098,292.35c0,14.121,11.478,25.596,25.6,25.596c13.827,0,25.298-11.475,25.298-25.596
	c0-14.121-11.471-25.301-25.298-25.301C351.576,267.049,340.098,278.229,340.098,292.35z"/>
<path style="fill:#EBF0F3;" d="M340.099,292.344c0,2.007,0.183,3.924,0.729,5.749c3.469-0.73,7.027,0.274,8.943,3.559
	c1.825,3.194,1.005,6.936-1.459,9.491c2.738,2.555,6.022,4.472,9.674,5.658c1.003-3.377,3.832-6.023,7.575-6.023
	c3.741,0,6.568,2.647,7.573,6.115c3.652-1.186,6.936-3.103,9.674-5.749c-2.464-2.556-3.286-6.206-1.459-9.491
	c1.916-3.285,5.474-4.289,8.943-3.559c0.546-1.825,0.729-3.741,0.729-5.749c0-1.917-0.183-3.742-0.639-5.476
	c-3.467,0.822-7.116-0.274-9.032-3.468c-1.918-3.285-1.005-7.118,1.459-9.674c-2.738-2.464-6.022-4.38-9.674-5.567
	c-1.094,3.468-3.832,6.114-7.573,6.114c-3.743,0-6.481-2.646-7.575-6.023c-3.743,1.186-7.027,3.103-9.765,5.567
	c2.556,2.646,3.375,6.388,1.551,9.582c-1.825,3.103-5.566,4.198-9.035,3.468C340.281,288.602,340.099,290.428,340.099,292.344z"/>
<path style="fill:#64798A;" d="M135.732,292.519c0,0.849,0,1.697-0.05,2.496H46.777l-10.783-2.895
	c0.2-27.306,22.513-49.52,49.869-49.52C113.369,242.6,135.732,265.013,135.732,292.519z"/>
<path style="fill:#2F4859;" d="M45.967,292.496c0,22.048,17.849,39.897,39.901,39.897c22.044,0,39.892-17.849,39.892-39.897
	c0-22.048-17.849-39.895-39.892-39.895C63.815,252.602,45.967,270.448,45.967,292.496z"/>
<path style="fill:#64798A;" d="M60.402,292.35c0,14.121,11.478,25.596,25.6,25.596c13.827,0,25.298-11.475,25.298-25.596
	c0-14.121-11.471-25.301-25.298-25.301C71.88,267.049,60.402,278.229,60.402,292.35z"/>
<path style="fill:#EBF0F3;" d="M60.403,292.344c0,2.007,0.183,3.924,0.729,5.749c3.469-0.73,7.027,0.274,8.943,3.559
	c1.825,3.194,1.005,6.936-1.459,9.491c2.738,2.555,6.022,4.472,9.674,5.658c1.003-3.377,3.832-6.023,7.575-6.023
	c3.741,0,6.568,2.647,7.573,6.115c3.652-1.186,6.936-3.103,9.674-5.749c-2.464-2.556-3.286-6.206-1.459-9.491
	c1.916-3.285,5.474-4.289,8.943-3.559c0.546-1.825,0.729-3.741,0.729-5.749c0-1.917-0.183-3.742-0.639-5.476
	c-3.467,0.822-7.116-0.274-9.032-3.468c-1.918-3.285-1.005-7.118,1.459-9.674c-2.738-2.464-6.022-4.38-9.674-5.567
	c-1.094,3.468-3.832,6.114-7.573,6.114c-3.743,0-6.481-2.646-7.575-6.023c-3.743,1.186-7.027,3.103-9.765,5.567
	c2.556,2.646,3.375,6.388,1.551,9.582c-1.825,3.103-5.566,4.198-9.035,3.468C60.586,288.602,60.403,290.428,60.403,292.344z"/>
<g>
	<path style="fill:#27A2DB;" d="M199.379,155.26v54.911h-61.55c-25.259,0-46.474-17.621-51.966-41.283
		c35.143-11.232,72.582-15.974,109.423-13.828C196.684,155.061,198.032,155.161,199.379,155.26z"/>
	<path style="fill:#27A2DB;" d="M365.559,210.171h-166.18V155.26c1.348,0.1,2.696,0.2,4.044,0.349
		c28.254,2.346,56.059,8.786,82.116,19.469c19.169,7.837,37.439,17.721,56.409,26.157
		C349.685,204.68,357.572,207.675,365.559,210.171z"/>
</g>
<path style="fill:#2F4859;" d="M203.423,155.61v54.561h-8.137v-55.11c1.398,0,2.746,0.1,4.093,0.2
	C200.727,155.36,202.075,155.46,203.423,155.61z"/>
<g>
</g>
<g>
</g>
<g>
</g>
<g>
</g>
<g>
</g>
<g>
</g>
<g>
</g>
<g>
</g>
<g>
</g>
<g>
</g>
<g>
</g>
<g>
</g>
<g>
</g>
<g>
</g>
<g>
</g>
</svg>
