<svg id="Capa_1" enable-background="new 0 0 497.001 497.001" height="512" viewBox="0 0 497.001 497.001" width="512" xmlns="http://www.w3.org/2000/svg"><g><g><path d="m202.82 460.5c0-20.158-14.827-36.5-34.988-36.5-8.815 0-16.321 3.714-22.629 8.915-1.595 1.315-5.008 3.738-5.008 3.738-5.525 6.396-8.867 14.731-8.867 23.847 0 20.158 16.344 36.5 36.505 36.5 13.614 0 25.487-7.451 31.763-18.498-.001.001 3.224-11.455 3.224-18.002z" fill="#adacb5"/><path d="m204.341 460.5c0 6.55-1.716 12.692-4.746 18.002l-16.104-.002c-14.99 0-28.62-8.85-34.72-22.56l-8.576-19.287c6.7-7.75 16.596-12.653 27.636-12.653 20.16 0 36.51 16.341 36.51 36.5z" fill="#9d9da8"/><path d="m204.341 460.5h-20.846c-7.902 0-15.063-4.653-18.274-11.873l-18.555-41.722 31.942-7.958 25.729 7.958z" fill="#f7f9fa"/><path d="m218.776 406.905h-72.111l-13.356-.745c-1.657 0-3-1.343-3-3l.213-26.69c0-1.657.047-3 1.703-3h86.55c1.657 0 3 1.343 3 3v27.435c.001 1.657-1.342 3-2.999 3z" fill="#e9edf1"/><path d="m146.661 373.47v33.44h-14.44c-1.65 0-3-1.35-3-3v-27.44c0-1.66 1.35-3 3-3z" fill="#dce6eb"/></g><g><path d="m444.823 460.5c0-20.158-14.827-36.5-34.988-36.5-8.815 0-16.321 3.714-22.629 8.915-1.595 1.315-5.008 3.738-5.008 3.738-5.525 6.396-8.867 14.731-8.867 23.847 0 20.158 16.344 36.5 36.505 36.5 13.614 0 25.487-7.451 31.763-18.498-.002.001 3.224-11.455 3.224-18.002z" fill="#adacb5"/><path d="m446.343 460.5c0 6.55-1.716 12.692-4.746 18.002l-16.104-.002c-14.99 0-28.62-8.85-34.72-22.56l-8.576-19.287c6.7-7.75 16.596-12.653 27.636-12.653 20.16 0 36.51 16.341 36.51 36.5z" fill="#9d9da8"/><path d="m446.343 460.5h-20.846c-7.902 0-15.063-4.653-18.274-11.873l-18.555-41.722 31.942-7.958 25.729 7.958z" fill="#f7f9fa"/><path d="m460.779 406.905h-72.111l-13.356-.745c-1.657 0-3-1.343-3-3l.213-26.69c0-1.657.047-3 1.703-3h86.55c1.657 0 3 1.343 3 3v27.435c.001 1.657-1.343 3-2.999 3z" fill="#e9edf1"/><path d="m388.663 373.47v33.44h-14.44c-1.65 0-3-1.35-3-3v-27.44c0-1.66 1.35-3 3-3z" fill="#dce6eb"/></g><g><path d="m367.161 142.99-141.191-2.043-2.767-134.042c0-2.761 2.239-5 5-5l10.298-1.905h38.5l20 3.755 20-3.755h49.5c2.761 0 5 2.239 5 5v124.98z" fill="#ffd18d"/><path d="m371.501 129.98v17l-71.362 11.201-78.638-11.201v-141.98c0-2.761 2.239-5 5-5h12v125.98c0 2.209 1.791 4 4 4z" fill="#fbbd80"/><path d="m313.972 50.177-15.942-9.564c-.633-.38-1.424-.38-2.058 0l-15.942 9.564c-1.333.8-3.029-.161-3.029-1.715v-48.462h40v48.461c0 1.555-1.696 2.516-3.029 1.716z" fill="#a87c72"/><path d="m314.501 116.986h24c1.657 0 3-1.343 3-3v-23.996c0-1.657-1.343-3-3-3h-24c-1.657 0-3 1.343-3 3v23.996c0 1.657 1.343 3 3 3z" fill="#f7f9fa"/><g><path d="m272.001 116.986h-20c-4.142 0-7.5-3.358-7.5-7.5s3.358-7.5 7.5-7.5h20c4.142 0 7.5 3.358 7.5 7.5s-3.358 7.5-7.5 7.5z" fill="#fbbd80"/></g><path d="m443.788 346.958h-293.01l-1.851-193.819c0-2.761 2.238-5 5-5l9.575-1.157h94l39 9.667 41-9.667h104c2.761 0 5 2.238 5 5v177.978z" fill="#fcef66"/><path d="m446.501 329.961v17l-134.106 9.476-165.894-9.476v-194.981c0-2.761 2.239-5 5-5h12v177.98c0 2.761 2.239 5 5 5h278z" fill="#f7e242"/><path d="m332.764 217.332-13.396-10.046c-1.066-.799-2.531-.8-3.598-.001l-16.435 12.304c-1.067.798-2.532.798-3.598-.001l-16.4-12.299c-1.067-.8-2.535-.8-3.602.001l-13.369 10.043c-1.976 1.485-4.8.076-4.802-2.396l-.063-67.955h80l.063 67.947c.002 2.474-2.822 3.887-4.8 2.403z" fill="#f7f9fa"/><g><path d="m242.501 304.461h-60c-4.142 0-7.5 3.358-7.5 7.5s3.358 7.5 7.5 7.5h60c4.142 0 7.5-3.358 7.5-7.5s-3.358-7.5-7.5-7.5z" fill="#f7e242"/><path d="m182.501 289.465h30c4.142 0 7.5-3.358 7.5-7.5s-3.358-7.5-7.5-7.5h-30c-4.142 0-7.5 3.358-7.5 7.5s3.358 7.5 7.5 7.5z" fill="#f7e242"/><g fill="#f7f9fa"><path d="m355.729 271.467c1.919 0 3.839-.732 5.304-2.197 2.929-2.929 2.928-7.678-.001-10.606l-11.313-11.312c-1.794-1.794-4.18-2.782-6.717-2.782s-4.923.988-6.717 2.782l-11.314 11.312c-2.929 2.929-2.93 7.678-.001 10.606 2.905 2.906 7.597 2.926 10.532.068v35.123h-40v-35.123c1.455 1.417 3.34 2.129 5.228 2.129 1.919 0 3.839-.732 5.304-2.197 2.929-2.929 2.928-7.678-.001-10.606l-11.313-11.312c-1.794-1.794-4.18-2.782-6.717-2.782s-4.923.988-6.717 2.782l-11.314 11.312c-2.929 2.929-2.93 7.678-.001 10.606 2.905 2.906 7.597 2.926 10.532.068v35.123h-5.5c-4.142 0-7.5 3.358-7.5 7.5s3.358 7.5 7.5 7.5h80c4.142 0 7.5-3.358 7.5-7.5s-3.358-7.5-7.5-7.5h-4.5v-35.123c1.453 1.417 3.338 2.129 5.226 2.129z"/><path d="m423.501 266.966v-14.997c0-4.142-3.358-7.5-7.5-7.5h-30c-4.142 0-7.5 3.358-7.5 7.5v14.997c0 9.776 6.271 18.113 15 21.209v16.287h-7.5c-4.142 0-7.5 3.358-7.5 7.5s3.358 7.5 7.5 7.5h30c4.142 0 7.5-3.358 7.5-7.5s-3.358-7.5-7.5-7.5h-7.5v-16.286c8.729-3.097 15-11.433 15-21.21z"/></g></g></g><path d="m45.003 346.958h23.306v32.777l-21.872.702c-5.524 0-10.002-4.478-10.002-10.002l-1.434-5.464v-8.01c0-5.525 4.478-10.003 10.002-10.003z" fill="#fcb44d"/><path d="m68.311 364.97v17h-23.31c-5.52 0-10-4.47-10-10v-7z" fill="#fca62f"/><path d="m485.948 379.735-392.191-.83-.255-28.766 14.5-3.181h378.998c5.524 0 10.002 4.478 10.002 10.002v8.01l-1.051 4.762c-.001 5.524-4.479 10.003-10.003 10.003z" fill="#fcb44d"/><path d="m497.001 364.97v7c0 5.53-4.48 10-10 10h-396l-5.67-17 5.67-18.01h17v13.01c0 2.761 2.239 5 5 5z" fill="#fca62f"/><path d="m7.373 46.777c-6.351 3.62-6.031 11.206-2.383 17.574l61.91 104.558c.867 1.514 1.324 3.229 1.324 4.974l-1.915 227.83c0 2.209 1.791 4 4 4l9.881 1.774h6.81c2.209 0 4-1.791 4-4v-230.584c0-5.29-1.398-10.487-4.052-15.063l-62.481-107.728c-3.26-5.621-10.007-7.929-15.878-5.739-.001.001-.591 2.048-1.216 2.404z" fill="#fcb44d"/><path d="m80.191 175.07v232.417l-12 .003c-2.2 0-4-1.79-4-4v-228.42c0-1.75-.45-3.46-1.32-4.98l-61.11-106.689c-3.65-6.36-1.44-14.51 4.91-18.13.62-.36 1.267-.657 1.918-.897l68.562 119.256c1.99 3.47 3.04 7.43 3.04 11.44z" fill="#fca62f"/></g></svg>