<svg height="512" viewBox="0 0 512 512" width="512" xmlns="http://www.w3.org/2000/svg"><g id="Flat"><circle cx="144" cy="144" fill="#8acce7" r="120"/><path d="m240 144q0 4.03491-.34009 8a95.11494 95.11494 0 0 1 -16.80981 46.76 96.08585 96.08585 0 0 1 -24.0901 24.09 95.11622 95.11622 0 0 1 -46.76 16.80991q-3.96021.34515-8 .34009-4.03491 0-8-.34009a95.11622 95.11622 0 0 1 -46.76-16.80991 96.08585 96.08585 0 0 1 -24.0901-24.09 95.11494 95.11494 0 0 1 -16.80981-46.76q-.34535-3.96-.34009-8 0-4.03491.34009-8a95.1133 95.1133 0 0 1 16.80981-46.76 96.08435 96.08435 0 0 1 24.0901-24.0901 95.1197 95.1197 0 0 1 46.76-16.8099q3.96021-.345 8-.34 4.03491 0 8 .34a95.1197 95.1197 0 0 1 46.76 16.8099 96.08435 96.08435 0 0 1 24.0901 24.0901 95.1133 95.1133 0 0 1 16.80981 46.76q.34535 3.96.34009 8z" fill="#c4d4e0"/><g fill="#2f4054"><path d="m152 48.34v23.66h-16v-23.66q3.96021-.345 8-.34 4.03491 0 8 .34z"/><path d="m114.92993 77.6499-13.85986 8-11.83007-20.5a94.59419 94.59419 0 0 1 13.84008-8.0199z"/><path d="m85.6499 101.07007-8 13.85986-20.52-11.85a94.6153 94.6153 0 0 1 8.02-13.84z"/><path d="m72 136v16h-23.65991q-.34535-3.96-.34009-8 0-4.03491.34009-8z"/><path d="m85.6499 186.92993-20.5 11.83007a94.61654 94.61654 0 0 1 -8.02-13.84009l20.52-11.84985z"/><path d="m114.92993 210.35-11.84985 20.52a94.6057 94.6057 0 0 1 -13.84008-8.02l11.83008-20.5z"/><path d="m152 216v23.65991q-3.96021.34515-8 .34009-4.03491 0-8-.34009v-23.65991z"/><path d="m198.76 222.85a94.6057 94.6057 0 0 1 -13.84009 8.02l-11.84985-20.52 13.85986-8z"/><path d="m230.87012 184.91992a94.61654 94.61654 0 0 1 -8.02 13.84009l-20.5-11.83008 8-13.85986z"/><path d="m240 144q0 4.03491-.34009 8h-23.65991v-16h23.65991q.34535 3.96.34009 8z"/><path d="m230.87012 103.08-20.52 11.85-8-13.85986 20.5-11.83008a94.6153 94.6153 0 0 1 8.02 13.83994z"/><path d="m198.76 65.1499-11.83008 20.5-13.85986-8 11.84986-20.5199a94.59419 94.59419 0 0 1 13.84008 8.0199z"/></g><path d="m117.65723 181.65674-11.31446-11.31348 29.65723-29.65674v-52.68652h16v56a8.00035 8.00035 0 0 1 -2.34277 5.65674z" fill="#e44042"/><circle cx="144" cy="144" fill="#2d80b3" r="16"/><path d="m376 288h112v208h-112z" fill="#8ec737"/><path d="m152 320h112v176h-112z" fill="#eebe33" transform="matrix(-1 0 0 -1 416 816)"/><path d="m264 384h112v112h-112z" fill="#e88604" transform="matrix(-1 0 0 -1 640 880)"/><path d="m40 416h112v80h-112z" fill="#e44042"/><path d="m493.66016 149.65991-29.66016 29.66016-138.33984 138.33984a8.01538 8.01538 0 0 1 -11.32032 0l-106.33984-106.34985-178.34009 178.34985-11.31982-11.31991 184-184a8.015 8.015 0 0 1 11.31982 0l106.34009 106.34994 132.68018-132.68994 29.65966-29.66z" fill="#8ec737"/><path d="m464 179.32v-11.32h-11.32l29.66-29.66 11.32 11.32z" fill="#68b840"/><path d="m496 200h-16v-48h-48v-16h56a8.00008 8.00008 0 0 1 8 8z" fill="#8ec737"/></g></svg>