<svg id="Capa_1" enable-background="new 0 0 512 512" height="512" viewBox="0 0 512 512" width="512" xmlns="http://www.w3.org/2000/svg"><g><g><g><g><path d="m49.809 352.943v120.732l206.191 5.048 206.191-5.157v-120.623z" fill="#9ce3bf"/></g><g><path d="m216.432 8.324v89.998h105.032v-89.807z" fill="#f8e868"/></g><g><path d="m253.953 8.705v30.072h29.968v-30.019z" fill="#c21d44"/></g><g><path d="m50.119 67.965h136.001v120.617h-136.001z" fill="#d15573"/></g><g><path d="m72.532 165.751v-97.786h-22.413v120.617h136v-22.831z" fill="#c21d44"/></g><g><path d="m49.809 473.675v30.708h412.382v-30.817z" fill="#c4e5f9"/></g><g><path d="m49.809 473.675v30.708h22.212v-30.817z" fill="#a4d7f5"/></g><g><path d="m72.781 450.703v-97.76h-22.972v120.732l412.382-.109v-22.966z" fill="#52cd8d"/></g><g><path d="m216.421 98.322v163.759h150.362v-163.411z" fill="#f8e868"/></g><g><path d="m238.889 239.613v-141.239l-22.468-.052v163.759h150.362v-22.468z" fill="#dec80e"/></g><g><path d="m238.889 74.909v-65.835l-22.468-.052v88.355h105.043v-22.468z" fill="#dec80e"/></g><g><path d="m276.799 98.297v30.072h29.968v-30.019z" fill="#c21d44"/></g><g><path d="m216.432 262.081v-224.72h-60.99v30.244h31.054v224.412h210.008v-29.936z" fill="#c4e5f9"/></g><g><path d="m155.442 37.361h22.979v30.244h-22.979z" fill="#a4d7f5"/></g><g><path d="m186.496 269.489h209.326v22.528h-209.326z" fill="#a4d7f5"/></g><g><circle cx="186.496" cy="322.655" fill="#6e91ef" r="30.287"/></g><g><path d="m201.472 337.967c-16.727 0-30.287-13.56-30.287-30.287 0-4.488.984-8.744 2.736-12.575-10.448 4.777-17.712 15.312-17.712 27.552 0 16.727 13.56 30.287 30.287 30.287 12.239 0 22.775-7.264 27.552-17.712-3.832 1.751-8.088 2.735-12.576 2.735z" fill="#3d6dea"/></g><g><circle cx="351.432" cy="322.655" fill="#6e91ef" r="30.287"/></g><g><path d="m366.408 337.967c-16.727 0-30.287-13.56-30.287-30.287 0-4.488.984-8.744 2.736-12.575-10.448 4.777-17.712 15.312-17.712 27.552 0 16.727 13.56 30.287 30.287 30.287 12.239 0 22.775-7.264 27.552-17.712-3.832 1.751-8.088 2.735-12.576 2.735z" fill="#3d6dea"/></g><g><path d="m239.027 179.538h15v15h-15z" fill="#fff"/></g></g></g><g><path d="m163.265 390.638h22.511v60.097h15.008v-60.097h22.511v-15.008h-60.03z"/><path d="m343.341 450.683c.023 0 15.053-.028 15.053-.028l-.027-15.008s-15.01.028-15.024.028c-6.022 0-11.684-2.342-15.947-6.597-4.274-4.266-6.627-9.94-6.627-15.978 0-12.448 10.127-22.575 22.576-22.575h15.036v-15.008h-15.036c-20.723 0-37.583 16.86-37.583 37.583 0 10.052 3.918 19.499 11.033 26.6 7.096 7.085 16.52 10.984 26.546 10.983z"/><path d="m125.981 405.41-7.655-.007c-4.067-.004-7.375-3.316-7.375-7.383 0-4.071 3.312-7.383 7.383-7.383h30.002v-15.007h-30.002c-12.346 0-22.39 10.044-22.39 22.39 0 12.334 10.034 22.378 22.369 22.39l7.655.007c9.767.166 9.663 14.86.025 15.118h-30.243v15.199h30.309c29.377-1.191 29.59-44.39-.078-45.324z"/><path d="m291.095 420.64v-15.108c0-16.55-13.465-30.015-30.015-30.015s-30.015 13.465-30.015 30.015v15.108c0 16.55 13.465 30.015 30.015 30.015s30.015-13.464 30.015-30.015zm-45.023 0v-15.108c0-8.275 6.732-15.008 15.008-15.008s15.008 6.732 15.008 15.008v15.108c0 8.275-6.732 15.008-15.008 15.008s-15.008-6.732-15.008-15.008z"/><path d="m388.389 421.881c8.734 3.098 15.008 11.438 15.008 21.221v7.504h15.008v-7.504c0-12.279-5.929-23.199-15.074-30.047 9.145-6.849 15.074-17.768 15.074-30.047v-7.504h-15.008v7.504c0 9.782-6.274 18.123-15.008 21.221v-28.724h-15.008v75.038h15.008z"/><path d="m381.613 345.476c4.811-6.343 7.673-14.242 7.673-22.799 0-8.717-2.973-16.748-7.948-23.15h22.741v-44.959h-29.736v-118.64h-15.008v118.64h-135.42v-149.206h45.39v29.434h44.99v-29.434h45.039v15.558h15.008v-30.566h-45.342v-89.685h-120.092v29.065h-61.02v30.619h-105.378v135.687h45.255v-15.008h-30.247v-105.67h121.062v105.67h-75.807v15.008h76.183v89.581c-17.264 3.491-30.302 18.778-30.302 37.056 0 8.557 2.862 16.456 7.673 22.799h-114.126v166.524h427.599v-166.524zm-52.932-22.799c0-12.571 10.228-22.799 22.799-22.799s22.799 10.227 22.799 22.799-10.228 22.799-22.799 22.799-22.799-10.228-22.799-22.799zm-29.393-202.889h-14.975v-14.426h14.975zm-37.832-104.015 14.975.027v15.351h-14.975zm-37.541-.069 22.533.041v30.414h44.99v-30.331l22.554.041v74.485h-90.078v-74.65zm-61.02 29.038h46.012v224.833h180.163v14.944h-195.106v-224.525h-31.068v-15.252zm23.565 255.136c12.572 0 22.8 10.227 22.8 22.799s-10.228 22.799-22.8 22.799c-12.571 0-22.799-10.227-22.799-22.799s10.228-22.799 22.799-22.799zm29.858-.351h105.304c-4.975 6.402-7.948 14.433-7.948 23.15 0 8.557 2.862 16.456 7.673 22.799h-104.753c4.811-6.343 7.673-14.242 7.673-22.799 0-8.717-2.973-16.748-7.949-23.15zm238.474 197.465h-397.584v-15.718l176.282-.052-.004-15.008-176.278.052v-105.782h397.583v105.678l-176.282.048.004 15.008 176.278-.048v15.822z"/><path d="m248.496 466.212h15.008v15.005h-15.008z"/><path d="m238.945 224.585h45.023v15.008h-45.023z"/><path d="m117.549 119.36 29.969 46.21h15.157v-74.764h-15.008v47.413l-30.807-47.503h-14.318v74.978h15.007z"/><path d="m72.494 90.806h15.008v74.888h-15.008z"/><path d="m370.469 13.549h43.682v15.008h-43.682z" transform="matrix(.685 -.729 .729 .685 108.23 292.436)"/><path d="m414.215 66.301h43.683v15.007h-43.683z" transform="matrix(.859 -.511 .511 .859 23.612 233.434)"/><path d="m393.606 38.115h43.682v15.008h-43.682z" transform="matrix(.78 -.626 .626 .78 62.949 270.168)"/></g></g></svg>