<?xml version="1.0" encoding="iso-8859-1"?>
<!-- Generator: Adobe Illustrator 19.0.0, SVG Export Plug-In . SVG Version: 6.00 Build 0)  -->
<svg version="1.1" id="Capa_1" xmlns="http://www.w3.org/2000/svg" xmlns:xlink="http://www.w3.org/1999/xlink" x="0px" y="0px"
	 viewBox="0 0 496 496" style="enable-background:new 0 0 496 496;" xml:space="preserve">
<g>
	<path style="fill:#FFA64D;" d="M424,464c-22.056,0-40-17.944-40-40s17.944-40,40-40s40,17.944,40,40S446.056,464,424,464z"/>
	<path style="fill:#FFA64D;" d="M72,464c-22.056,0-40-17.944-40-40s17.944-40,40-40s40,17.944,40,40S94.056,464,72,464z"/>
	<path style="fill:#FFA64D;" d="M168,464c-22.056,0-40-17.944-40-40s17.944-40,40-40s40,17.944,40,40S190.056,464,168,464z"/>
</g>
<g>
	<path style="fill:#333333;" d="M0,0v64h151.088c6.296,10.896,14.392,20.8,24.192,29.176l10.392-12.168
		C166.32,64.48,154.528,41.112,152.432,16H343.56c-2.096,25.112-13.88,48.472-33.232,65.008l10.4,12.168
		C330.536,84.8,338.624,74.888,344.912,64H496V0H0z M16,16h16v32H16V16z M143.536,48H48V16h88.432
		C137.224,27.064,139.64,37.816,143.536,48z M359.568,16H448v32h-95.536C356.36,37.816,358.776,27.064,359.568,16z M480,48h-16V16
		h16V48z"/>
	<path style="fill:#333333;" d="M448,136c0-13.232-10.768-24-24-24c-11.36,0-20.856,7.96-23.328,18.576l-66.28,13.584l3.208,15.672
		l64.928-13.312c2.976,6.04,8.376,10.6,14.96,12.464l12.68,50.712C417.352,213.88,408,225.8,408,240h16c0-8.824,7.176-16,16-16
		s16,7.176,16,16h16c0-15.448-11.008-28.376-25.592-31.352l-12.688-50.752C442.112,154.16,448,145.768,448,136z M424,128
		c4.408,0,8,3.592,8,8s-3.592,8-8,8s-8-3.592-8-8S419.592,128,424,128z"/>
	<path style="fill:#333333;" d="M24,240h16c0-8.824,7.176-16,16-16s16,7.176,16,16h16c0-14.2-9.352-26.12-22.176-30.296
		l12.68-50.712c6.584-1.864,11.992-6.432,14.968-12.464L158.4,159.84l3.208-15.672l-66.28-13.584C92.856,119.96,83.36,112,72,112
		c-13.232,0-24,10.768-24,24c0,9.768,5.888,18.16,14.28,21.896l-12.688,50.752C35.008,211.624,24,224.552,24,240z M72,128
		c4.408,0,8,3.592,8,8s-3.592,8-8,8s-8-3.592-8-8S67.592,128,72,128z"/>
</g>
<path style="fill:#FFA64D;" d="M272,240h-48v-19.728c-4.472-1.408-8.8-3.2-12.952-5.384l-13.96,13.96l-33.936-33.936l13.96-13.96
	c-2.176-4.16-3.976-8.488-5.384-12.952H152v-48h19.728c1.408-4.472,3.2-8.8,5.384-12.952l-13.96-13.96l33.936-33.936l13.96,13.96
	c4.152-2.184,8.48-3.976,12.952-5.384V48h48v19.728c4.472,1.408,8.8,3.2,12.952,5.384l13.96-13.96l33.936,33.936l-13.96,13.96
	c2.176,4.16,3.976,8.488,5.384,12.952H344v48h-19.728c-1.408,4.472-3.2,8.8-5.384,12.952l13.96,13.96l-33.936,33.936l-13.96-13.96
	c-4.16,2.176-8.488,3.976-12.952,5.384V240z"/>
<g>
	<path style="fill:#333333;" d="M296,144c0-26.472-21.528-48-48-48s-48,21.528-48,48s21.528,48,48,48S296,170.472,296,144z M216,144
		c0-17.648,14.352-32,32-32s32,14.352,32,32s-14.352,32-32,32S216,161.648,216,144z"/>
	<path style="fill:#333333;" d="M424,352h-16.208c5.08-6.704,8.208-14.96,8.208-24c0-22.056-17.944-40-40-40s-40,17.944-40,40
		c0,9.04,3.128,17.296,8.208,24H312v-80H184v-16H72v96c-39.696,0-72,32.304-72,72s32.304,72,72,72h352c39.696,0,72-32.304,72-72
		S463.696,352,424,352z M352,328c0-13.232,10.768-24,24-24s24,10.768,24,24s-10.768,24-24,24S352,341.232,352,328z M296,352h-16v-16
		h-16v16h-16v-64h16v32h16v-32h16V352z M216,352v-64h16v64H216z M200,288v64h-16v-64H200z M168,352h-16v-80h16V352z M120,352v-80h16
		v80H120z M88,272h16v80H88V272z M424,480H72c-30.88,0-56-25.12-56-56s25.12-56,56-56h352c30.88,0,56,25.12,56,56
		S454.88,480,424,480z"/>
	<rect x="216" y="384" style="fill:#333333;" width="160" height="16"/>
	<rect x="216" y="448" style="fill:#333333;" width="160" height="16"/>
	<path style="fill:#333333;" d="M424,400c-13.232,0-24,10.768-24,24s10.768,24,24,24s24-10.768,24-24S437.232,400,424,400z M424,432
		c-4.408,0-8-3.592-8-8s3.592-8,8-8s8,3.592,8,8S428.408,432,424,432z"/>
	<path style="fill:#333333;" d="M168,400c-13.232,0-24,10.768-24,24s10.768,24,24,24s24-10.768,24-24S181.232,400,168,400z M168,432
		c-4.408,0-8-3.592-8-8s3.592-8,8-8s8,3.592,8,8S172.408,432,168,432z"/>
	<path style="fill:#333333;" d="M72,400c-13.232,0-24,10.768-24,24s10.768,24,24,24s24-10.768,24-24S85.232,400,72,400z M72,432
		c-4.408,0-8-3.592-8-8s3.592-8,8-8s8,3.592,8,8S76.408,432,72,432z"/>
</g>
<g>
</g>
<g>
</g>
<g>
</g>
<g>
</g>
<g>
</g>
<g>
</g>
<g>
</g>
<g>
</g>
<g>
</g>
<g>
</g>
<g>
</g>
<g>
</g>
<g>
</g>
<g>
</g>
<g>
</g>
</svg>
