<svg height="512" viewBox="0 0 64 64" width="512" xmlns="http://www.w3.org/2000/svg"><g id="Layer_32" data-name="Layer 32"><path d="m55 37.5 7 3.5-30 15-30-15 7-3.5z" fill="#86dafc"/><path d="m55 26.5 7 3.5v4l-30 15-30-15v-4l7-3.5z" fill="#47a7ed"/><path d="m2 23 30-15 30 15-30 15z" fill="#86dafc"/><path d="m2 30 30 15v4l-30-15z" fill="#6ecbf9"/><path d="m32 45v4l30-15v-4z" fill="#308dc6"/></g><g id="Layer_1" data-name="Layer 1"><text font-family="MyriadPro-Regular, Myriad Pro" font-size="10" transform="translate(5.92 -22.9)"><tspan letter-spacing="-.00698242188em">HY</tspan><tspan x="11.79" y="0">D</tspan><tspan letter-spacing=".00297851563em" x="18.45" y="0">R</tspan><tspan x="23.859" y="0">O</tspan><tspan letter-spacing="-.083984375em" x="30.75" y="0">L</tspan><tspan letter-spacing="-.01298828125em" x="34.629" y="0">Y</tspan><tspan x="39.909" y="0">SIS</tspan><tspan x=".985" y="12">RESIS</tspan><tspan letter-spacing="-.075em" x="23.535" y="12">T</tspan><tspan x="27.755" y="12">ANCE</tspan></text></g></svg>