<svg id="Capa_1" enable-background="new 0 0 512.089 512.089" height="512" viewBox="0 0 512.089 512.089" width="512" xmlns="http://www.w3.org/2000/svg"><g><g><path d="m353.651 136.278h-195.125c-15.37 0-27.829 12.46-27.829 27.829v183.959c0 15.37 12.46 27.829 27.829 27.829h195.125c15.37 0 27.829-12.46 27.829-27.829v-183.959c0-15.369-12.459-27.829-27.829-27.829z" fill="#ffda8f"/><path d="m285.89 136.278h-59.603v64.065l29.802-14.478 29.801 14.478z" fill="#fff"/></g><path d="m430.037 82.138c-96.069-96.069-251.828-96.069-347.896 0-96.069 96.069-96.069 251.828 0 347.896 96.069 96.069 251.828 96.069 347.896 0s96.069-251.827 0-347.896zm-375.948 173.949c0-111.562 90.438-202 202-202 47.855 0 91.814 16.652 126.424 44.463l-283.961 283.961c-27.811-34.61-44.463-78.569-44.463-126.424zm202 202c-47.855 0-91.814-16.652-126.425-44.463l283.962-283.961c27.811 34.61 44.463 78.569 44.463 126.424 0 111.561-90.439 202-202 202z" fill="#ff7d97"/><g><path d="m437.108 75.067c-87.307-87.308-224.386-99.95-325.94-30.064-4.55 3.131-5.7 9.357-2.569 13.907 3.131 4.551 9.358 5.7 13.907 2.569 93.612-64.421 219.974-52.758 300.46 27.73 44.575 44.574 69.123 103.839 69.123 166.877s-24.548 122.303-69.123 166.877c-44.574 44.575-103.839 69.123-166.877 69.123s-122.303-24.548-166.877-69.123c-80.511-80.509-92.158-206.893-27.695-300.512 3.132-4.549 1.984-10.775-2.565-13.907-4.549-3.131-10.775-1.984-13.908 2.565-69.934 101.565-57.306 238.666 30.025 325.997 48.352 48.352 112.639 74.98 181.02 74.98 68.38 0 132.667-26.629 181.02-74.98 48.352-48.353 74.98-112.64 74.98-181.02s-26.629-132.666-74.981-181.019z"/><path d="m388.777 90.755c-37.453-30.095-84.576-46.668-132.688-46.668-116.897 0-212 95.103-212 212 0 48.114 16.574 95.237 46.668 132.688 1.779 2.215 4.416 3.567 7.253 3.722.181.01.362.015.542.015 2.645 0 5.19-1.049 7.071-2.929l283.962-283.962c2.009-2.009 3.068-4.777 2.914-7.613-.154-2.837-1.507-5.474-3.722-7.253zm-68.134 55.523-24.754 24.754v-24.754zm-44.754 38.089-15.431-7.497c-1.38-.67-2.875-1.005-4.37-1.005s-2.99.335-4.37 1.005l-15.432 7.497v-38.089h39.602v38.089zm-54.907 24.452c1.616 1.012 3.458 1.523 5.306 1.523 1.491 0 2.985-.333 4.369-1.005l25.432-12.355 9.321 4.529-124.713 124.713v-162.117c0-9.831 7.998-17.829 17.829-17.829h57.761v54.064c0 3.446 1.774 6.649 4.695 8.477zm119.661-82.541h-54.754-59.602-67.761c-20.859 0-37.829 16.97-37.829 37.829v182.117l-21.109 21.109c-23.263-32.564-35.5-70.794-35.5-111.246 0-105.869 86.131-192 192-192 40.451 0 78.681 12.236 111.246 35.5z"/><path d="m119.679 414.166c.154 2.837 1.507 5.474 3.722 7.253 37.451 30.095 84.574 46.668 132.688 46.668 116.897 0 212-95.103 212-212 0-48.112-16.573-95.235-46.668-132.688-1.779-2.215-4.416-3.567-7.253-3.722-2.839-.153-5.604.905-7.613 2.914l-283.962 283.961c-2.008 2.009-3.068 4.778-2.914 7.614zm117.985-94.399h71.312c5.522 0 10-4.478 10-10s-4.478-10-10-10h-51.312l22.94-22.94h28.371c5.522 0 10-4.478 10-10s-4.478-10-10-10h-8.371l70.876-70.876v162.115c0 9.831-7.998 17.829-17.829 17.829h-162.116zm-66.129 66.128h182.116c20.859 0 37.829-16.97 37.829-37.829v-182.115l21.109-21.109c23.263 32.564 35.499 70.794 35.499 111.245 0 105.869-86.131 192-192 192-40.453 0-78.682-12.236-111.246-35.499z"/><circle cx="82.129" cy="82.124" r="10"/></g></g></svg>