<?xml version="1.0" encoding="iso-8859-1"?>
<!-- Generator: Adobe Illustrator 19.0.0, SVG Export Plug-In . SVG Version: 6.00 Build 0)  -->
<svg version="1.1" id="Capa_1" xmlns="http://www.w3.org/2000/svg" xmlns:xlink="http://www.w3.org/1999/xlink" x="0px" y="0px"
	 viewBox="0 0 508 508" style="enable-background:new 0 0 508 508;" xml:space="preserve">
<polygon style="fill:#FF7058;" points="361.9,1.3 412.9,52.3 301.5,163.7 177,39.2 0,216.3 44.1,260.3 177,127.3 301.5,251.8 
	457,96.3 508,147.4 508,1.3 "/>
<polygon style="fill:#84DBFF;" points="82.2,267.1 82.2,506.7 15.9,506.7 15.9,277.1 44.1,305.2 "/>
<polygon style="fill:#F2F2F2;" points="177,172.2 184.6,179.8 184.6,506.7 118.4,506.7 118.4,230.8 "/>
<polygon style="fill:#FFD15C;" points="287.2,282.4 287.2,506.7 220.8,506.7 220.8,216 "/>
<polygon style="fill:#CDD6E0;" points="389.6,208.7 389.6,506.7 323.4,506.7 323.4,275 "/>
<polygon style="fill:#4CDBC4;" points="492.2,176.4 492.2,506.7 425.8,506.7 425.8,172.5 457,141.3 "/>
<g>
</g>
<g>
</g>
<g>
</g>
<g>
</g>
<g>
</g>
<g>
</g>
<g>
</g>
<g>
</g>
<g>
</g>
<g>
</g>
<g>
</g>
<g>
</g>
<g>
</g>
<g>
</g>
<g>
</g>
</svg>
