<svg id="Layer_1" enable-background="new 0 0 512.003 512.003" height="512" viewBox="0 0 512.003 512.003" width="512" xmlns="http://www.w3.org/2000/svg"><g><path d="m301.329 443.758h-90.656v-179.515c0-2.276 1.845-4.121 4.121-4.121h82.414c2.276 0 4.121 1.845 4.121 4.121z" fill="#ffd15b"/><path d="m270.424 260.122v183.636h30.905v-179.515c0-2.276-1.845-4.121-4.121-4.121z" fill="#ffc344"/><path d="m157.104 443.231h-90.656v-217.632c0-2.276 1.845-4.121 4.121-4.121h82.414c2.276 0 4.121 1.845 4.121 4.121z" fill="#8379c1"/><path d="m126.199 221.479v221.752h30.905v-217.632c0-2.276-1.845-4.121-4.121-4.121h-26.784z" fill="#6e61b6"/><path d="m445.555 443.758h-90.656v-275.322c0-2.276 1.845-4.121 4.121-4.121h82.414c2.276 0 4.121 1.845 4.121 4.121z" fill="#fe646f"/><path d="m414.649 164.315v279.442h30.905v-275.321c0-2.276-1.845-4.121-4.121-4.121z" fill="#fd4755"/><path d="m496.549 458.947h-481.095c-8.534 0-15.453-6.918-15.453-15.453 0-8.534 6.918-15.453 15.453-15.453h481.095c8.534 0 15.453 6.918 15.453 15.453 0 8.535-6.919 15.453-15.453 15.453z" fill="#eef5f6"/><path d="m496.549 428.042h-30.905c8.534 0 15.453 6.918 15.453 15.453 0 8.534-6.918 15.453-15.453 15.453h30.905c8.534 0 15.453-6.918 15.453-15.453s-6.919-15.453-15.453-15.453z" fill="#deecf1"/><path d="m505.529 75.495-104.275-14.416c-2.019-.278-4.06.274-5.661 1.532l-141.165 110.915-140.497-42.149c-1.88-.565-3.907-.369-5.643.544l-104.274 54.78c-3.667 1.926-5.078 6.461-3.152 10.127 1.342 2.554 3.948 4.014 6.646 4.014 1.176 0 2.369-.277 3.481-.862l101.564-53.356 141.293 42.388c2.338.701 4.87.222 6.789-1.286l141.721-111.352 101.118 13.979c4.099.569 7.889-2.298 8.457-6.402.568-4.103-2.3-7.889-6.402-8.456z" fill="#918291"/><circle cx="111.776" cy="138.561" fill="#8379c1" r="15.453"/><circle cx="256.001" cy="181.828" fill="#ffd15b" r="15.453"/><circle cx="400.227" cy="68.508" fill="#fe646f" r="15.453"/></g><g><path d="m301.329 443.757h-90.655v-179.514c0-2.276 1.845-4.121 4.121-4.121h82.414c2.276 0 4.121 1.845 4.121 4.121v179.514z" fill="#ffd15b"/><path d="m270.424 260.122v183.635h30.905v-179.514c0-2.276-1.845-4.121-4.121-4.121z" fill="#ffc344"/><path d="m157.105 443.23h-90.656v-217.63c0-2.276 1.845-4.121 4.121-4.121h82.414c2.276 0 4.121 1.845 4.121 4.121z" fill="#8379c1"/><path d="m126.199 221.479v221.751h30.905v-217.63c0-2.276-1.845-4.121-4.121-4.121z" fill="#6e61b6"/><path d="m445.554 443.757h-90.655v-275.32c0-2.276 1.845-4.121 4.121-4.121h82.414c2.276 0 4.121 1.845 4.121 4.121v275.32z" fill="#fe646f"/><path d="m414.649 164.316v279.441h30.905v-275.32c0-2.276-1.845-4.121-4.121-4.121z" fill="#fd4755"/><path d="m496.547 458.946h-481.091c-8.534 0-15.453-6.918-15.453-15.453 0-8.534 6.918-15.453 15.453-15.453h481.092c8.534 0 15.453 6.918 15.453 15.453-.001 8.535-6.919 15.453-15.454 15.453z" fill="#eef5f6"/><path d="m496.547 428.041h-30.905c8.534 0 15.453 6.918 15.453 15.453 0 8.534-6.918 15.453-15.453 15.453h30.905c8.534 0 15.453-6.918 15.453-15.453s-6.918-15.453-15.453-15.453z" fill="#deecf1"/><path d="m505.527 75.496-104.273-14.416c-2.019-.278-4.06.274-5.661 1.532l-141.165 110.915-140.496-42.149c-1.88-.565-3.907-.369-5.643.544l-104.274 54.779c-3.667 1.926-5.078 6.461-3.152 10.127 1.342 2.554 3.948 4.014 6.646 4.014 1.176 0 2.369-.277 3.481-.862l101.563-53.356 141.292 42.387c2.338.701 4.87.222 6.789-1.286l141.72-111.351 101.118 13.979c4.099.569 7.889-2.298 8.457-6.402.568-4.102-2.299-7.888-6.402-8.455z" fill="#918291"/><circle cx="111.777" cy="138.561" fill="#8379c1" r="15.453"/><circle cx="256.001" cy="181.829" fill="#ffd15b" r="15.453"/><circle cx="400.226" cy="68.509" fill="#fe646f" r="15.453"/></g></svg>