<svg height="512" viewBox="0 0 58 44" width="512" xmlns="http://www.w3.org/2000/svg"><g id="Page-1" fill="none" fill-rule="evenodd"><g id="005---Truck" fill-rule="nonzero"><path id="Shape" d="m57.99 25c-.0158535-.7211506-.1650322-1.43314-.44-2.1l-6.04-14.66c-.3081983-.7502085-1.0389519-1.24001096-1.85-1.24h-12.66v-5c-.0032948-1.10320187-.8967981-1.9967052-2-2h-33c-1.10320187.0032948-1.9967052.89679813-2 2v28c.0032948 1.1032019.89679813 1.9967052 2 2h1c-1.65685425 0-3 1.3431458-3 3s1.34314575 3 3 3h1c.00000005 3.3137085 2.68629154 5.9999999 6 5.9999999 3.3137085 0 6-2.6862914 6-5.9999999h21c.0000001 3.3137084 2.6862916 5.9999998 6 5.9999998s5.9999999-2.6862914 6-5.9999998h7c1.1032019-.0032948 1.9967052-.8967981 2-2v-10.81c.0016589-.0634976-.0016848-.1270273-.01-.19z" fill="#f29c1f"/><circle id="Oval" cx="43" cy="38" fill="#464f5d" r="6"/><circle id="Oval" cx="43" cy="38" fill="#bdc3c7" r="3"/><circle id="Oval" cx="10" cy="38" fill="#464f5d" r="6"/><circle id="Oval" cx="10" cy="38" fill="#bdc3c7" r="3"/><path id="Shape" d="m10 32c-3.3137085 0-6 2.6862915-6 6h-1c-1.65685425 0-3-1.3431458-3-3s1.34314575-3 3-3z" fill="#95a5a5"/><path id="Shape" d="m43 32c-3.3137085 0-6 2.6862915-6 6h-21c0-3.3137085-2.6862915-6-6-6z" fill="#95a5a5"/><path id="Shape" d="m57.99 25c.0083152.0629727.0116589.1265024.01.19v10.81c-.0032948 1.1032019-.8967981 1.9967052-2 2h-7c0-3.3137085-2.6862915-6-6-6h-6v-25h6z" fill="#3b97d3"/><path id="Shape" d="m58 28v2h-2c-.5522847 0-1-.4477153-1-1s.4477153-1 1-1z" fill="#f5efca"/><path id="Shape" d="m58 32v2h-2c-.5522847 0-1-.4477153-1-1s.4477153-1 1-1z" fill="#ecf0f1"/><path id="Shape" d="m7 5h-3c-.55228475 0-1-.44771525-1-1s.44771525-1 1-1h3c.55228475 0 1 .44771525 1 1s-.44771525 1-1 1z" fill="#fac176"/><path id="Shape" d="m33 5h-22c-.5522847 0-1-.44771525-1-1s.4477153-1 1-1h22c.5522847 0 1 .44771525 1 1s-.4477153 1-1 1z" fill="#fac176"/><path id="Shape" d="m57.99 25h-12.99c-1.1032019-.0032948-1.9967052-.8967981-2-2v-16h6.66c.8110481-.00001096 1.5418017.4897915 1.85 1.24l6.04 14.66c.2749678.66686.4241465 1.3788494.44 2.1z" fill="#464f5d"/></g></g></svg>